<?xml version="1.0" standalone="no"?>
<!DOCTYPE svg PUBLIC "-//W3C//DTD SVG 20010904//EN"
 "http://www.w3.org/TR/2001/REC-SVG-20010904/DTD/svg10.dtd">
<svg version="1.0" xmlns="http://www.w3.org/2000/svg"
 width="331.000000pt" height="388.000000pt" viewBox="0 0 331.000000 388.000000"
 preserveAspectRatio="xMidYMid meet">
<metadata>
Created by potrace 1.16, written by Peter Selinger 2001-2019
</metadata>
<g transform="translate(0.000000,388.000000) scale(0.100000,-0.100000)"
fill="#000000" stroke="none">
<path d="M796 3449 c-115 -27 -291 -173 -342 -283 -24 -53 -26 -66 -22 -159 3
-85 8 -112 31 -162 58 -125 139 -201 256 -242 29 -10 56 -24 58 -31 3 -7 -10
-31 -29 -55 -48 -58 -123 -199 -144 -272 -51 -175 15 -458 136 -575 56 -55
168 -114 285 -151 39 -12 74 -26 79 -31 10 -8 -29 -184 -44 -201 -11 -12 -82
-28 -188 -41 -51 -6 -92 -15 -92 -21 0 -12 154 -13 226 -1 l52 8 -2 -133 c-1
-124 1 -138 25 -189 47 -101 147 -194 249 -231 l60 -22 0 -113 c0 -69 4 -115
11 -119 6 -4 12 -5 15 -3 2 3 7 53 11 111 3 59 9 107 12 107 3 1 51 2 106 4
134 4 274 41 334 87 48 38 61 26 108 -105 10 -27 24 -51 31 -54 20 -6 14 41
-14 115 -14 37 -28 75 -30 83 -3 9 15 47 40 85 25 38 46 75 46 83 0 7 5 10 12
6 6 -4 8 -3 5 3 -4 6 0 46 9 90 13 59 15 105 10 189 l-6 112 66 88 c37 49 75
98 85 110 20 21 26 54 9 54 -5 0 -43 -43 -85 -95 -41 -52 -79 -95 -84 -95 -5
0 -18 27 -30 60 -12 33 -38 81 -57 106 l-36 47 70 71 c125 128 157 209 157
406 0 135 0 135 -37 218 -21 46 -38 85 -38 87 0 3 32 20 71 40 97 48 122 67
184 142 125 152 152 284 90 448 -54 140 -112 211 -204 246 -65 24 -172 49
-216 49 -52 0 -146 -29 -232 -71 -157 -77 -250 -212 -261 -374 -3 -60 -9 -85
-19 -89 -8 -4 -19 -4 -23 -1 -5 3 -56 6 -115 6 -79 1 -108 5 -112 15 -2 7 5
38 16 69 52 139 0 324 -127 453 -48 49 -156 103 -240 121 -60 13 -72 13 -126
0z m139 -44 c144 -37 225 -102 292 -232 34 -68 38 -85 41 -164 4 -82 2 -93
-28 -157 l-31 -68 -72 -23 c-91 -29 -182 -70 -256 -116 l-58 -35 -54 16 c-87
26 -143 59 -192 114 -110 122 -146 304 -84 425 25 50 140 164 202 200 97 57
143 65 240 40z m1258 -154 c127 -44 156 -73 217 -211 25 -57 34 -93 38 -156 5
-79 3 -86 -30 -156 -65 -136 -140 -211 -263 -263 l-65 -28 -77 80 c-43 44
-107 99 -143 123 -67 45 -223 120 -251 120 -55 0 -58 111 -8 245 39 105 149
196 309 255 68 25 185 21 273 -9z m-671 -510 c15 -6 30 -22 36 -40 8 -22 17
-31 33 -31 18 0 20 4 15 25 -9 34 11 33 104 -8 97 -42 169 -91 248 -165 48
-47 62 -66 62 -89 0 -22 7 -33 26 -41 17 -9 36 -36 60 -88 53 -113 60 -160 42
-279 -25 -163 -46 -205 -152 -310 -104 -103 -184 -159 -294 -207 -71 -30 -85
-33 -172 -31 -53 0 -155 12 -230 26 -74 14 -155 29 -180 32 -109 17 -277 94
-347 158 -49 45 -78 96 -114 202 -21 60 -24 89 -24 200 1 147 13 191 89 319
61 102 101 144 138 148 25 2 34 9 38 28 3 14 20 34 36 45 44 30 192 87 239 92
22 2 49 9 60 13 11 5 31 11 45 14 39 7 213 -2 242 -13z m441 -1202 c81 -93
121 -351 82 -518 -30 -124 -97 -211 -207 -267 -173 -88 -372 -95 -536 -19 -80
37 -162 128 -191 210 -22 61 -23 75 -16 188 11 196 50 347 89 347 8 0 60 -9
117 -21 82 -16 132 -20 234 -17 l130 3 94 48 c51 26 105 57 119 67 35 28 46
25 85 -21z"/>
<path d="M771 3228 c-42 -22 -74 -47 -95 -77 -30 -41 -31 -47 -31 -141 0 -91
2 -100 24 -124 39 -42 171 -116 206 -116 85 1 172 81 200 185 21 76 16 135
-15 199 -34 70 -79 100 -159 104 -59 3 -73 0 -130 -30z"/>
<path d="M1957 3096 c-87 -32 -131 -89 -143 -188 -11 -92 44 -162 156 -198 99
-32 157 -16 228 65 58 66 72 101 67 170 -6 75 -30 115 -85 143 -52 26 -161 30
-223 8z"/>
<path d="M1562 2358 c-19 -19 -14 -69 11 -113 39 -70 97 -55 97 24 -1 39 -12
58 -50 84 -29 20 -42 21 -58 5z"/>
<path d="M1196 2208 c-10 -13 -16 -44 -16 -75 0 -41 4 -55 21 -67 12 -8 28
-12 36 -9 20 8 53 77 53 111 0 56 -64 83 -94 40z"/>
<path d="M1861 2188 c-5 -13 -12 -48 -16 -78 -12 -90 -40 -151 -97 -211 -128
-135 -188 -161 -334 -141 -46 6 -110 19 -140 29 -55 17 -134 74 -134 96 0 7
-9 22 -18 35 -16 20 -20 21 -30 9 -9 -11 -7 -23 11 -58 54 -101 179 -154 367
-154 105 0 119 2 158 25 55 33 177 154 208 206 25 42 69 237 58 255 -9 16 -24
10 -33 -13z"/>
<path d="M1463 2096 c-22 -20 -28 -32 -27 -65 2 -55 26 -81 74 -81 71 0 115
62 85 120 -28 55 -85 66 -132 26z"/>
</g>
</svg>
